# xmcd
# 
# Track frame offsets:
#     150
#     17917
#     37242
#     102050
#     139367
#     181805
#     214642
#     255002
# 
# Disc length: 3858
# 
# Revision: 1
# Processed by: cddbd v1.5.2PL0 Copyright (c) Steve Scherf et al.
# Submitted via: BonkEnc v1.0.8
# 
DISCID=660f1008
DTITLE=Bosse Broberg - Regni
DYEAR=1995
DGENRE=Big Band
TTITLE0=Sir Gil Ahead
TTITLE1=St Georges Bridge
TTITLE2=Monkey Serenade
TTITLE3=Regni
TTITLE4=Portrait Of Uriah
TTITLE5=Froggy-woogie
TTITLE6=O´s Bloos
TTITLE7=Double Steps And Track Fragments
EXTD=YEAR: 1996
EXTT0=
EXTT1=
EXTT2=
EXTT3=
EXTT4=
EXTT5=
EXTT6=
EXTT7=
PLAYORDER=
